<?xml version="1.0" encoding="utf-8"?>
<!-- Generator: Adobe Illustrator 21.0.0, SVG Export Plug-In . SVG Version: 6.00 Build 0)  -->
<svg version="1.1" id="Warstwa_1" xmlns="http://www.w3.org/2000/svg" xmlns:xlink="http://www.w3.org/1999/xlink" x="0px" y="0px"
	 viewBox="0 0 512 512" style="enable-background:new 0 0 512 512;" xml:space="preserve">
<style type="text/css">
	.st0{fill:#333333;}
</style>
<title>ionicons-v5_logos</title>
<path class="st0" d="M429.8,130.1L274.3,36.8c-11.4-6.5-25.3-6.5-36.6,0L82.2,130.1c-11.4,7-18.3,19.4-18.2,32.8V349
	c-0.1,13.4,6.8,25.8,18.2,32.8l40.8,24.3l0.2,0.1c20.6,10.5,28.5,10.5,37.6,10.5c32.1,0,52.1-20.8,52.1-54.3V182
	c0-4.7-3.7-8.5-8.4-8.6h-22.4c-4.7,0-8.5,3.9-8.4,8.6v180.5c0.2,5.3-2.4,10.2-6.9,13.1c-5.9,3.6-14.5,2.8-24.1-2.1l-39.1-23.5
	c-0.3-0.2-0.5-0.6-0.5-0.9V165.5c0-0.4,0.2-0.8,0.6-1.1l151.8-93c0.2-0.1,0.5-0.1,0.7,0l151.9,93c0.4,0.3,0.6,0.7,0.5,1.1V349
	c0,0.4-0.2,0.8-0.5,1l-152.1,90.6c-0.3,0.1-0.5,0.1-0.8,0l-38.8-23.1c-2.3-1.5-5.3-1.7-7.8-0.4l-0.3,0.2c-10.7,6.4-13.6,8-23.5,11.6
	c-1.6,0.6-5.4,2-5.8,5.8s3.3,6.5,6.5,8.3l51.9,31.9c5.5,3.3,11.9,5.1,18.3,5.1h0.6l0,0c6.3-0.1,12.4-1.8,17.8-5.1l155.4-93.1
	c11.4-7,18.3-19.5,18.2-32.8V162.8C448.1,149.5,441.1,137.1,429.8,130.1z"/>
<path class="st0" d="M307.9,318c-37.3,0-45.2-10.4-47.6-27.2c-0.5-4.1-4-7.3-8.2-7.3h-19.8c-4.6,0.1-8.3,3.9-8.3,8.6
	c0,14.6,5.1,62.2,83.9,62.2l0,0c24.4,0,44.7-5.7,58.6-16.5s21.5-26.5,21.5-45.2c0-37.6-24.5-47.8-72.8-54.6c-49-6.8-49-10.3-49-17.9
	c0-5.5,0-18.3,35.5-18.3c25.2,0,38.7,3.2,43.1,20c0.8,3.8,4.1,6.6,8.1,6.7h19.9c2.4,0,4.6-1.1,6.2-2.9c1.5-1.8,2.3-4.1,2.1-6.4
	c-2.6-35.6-28.6-53.6-79.2-53.6c-46.1,0-73.6,20.8-73.6,55.5c0,38.1,28.5,48.9,71.3,53.3c50,5.2,50,12.7,50,19.4
	C349.5,304.2,345.1,318,307.9,318z"/>
</svg>
