<?xml version="1.0" encoding="utf-8"?>
<!-- Generator: Adobe Illustrator 21.0.0, SVG Export Plug-In . SVG Version: 6.00 Build 0)  -->
<svg version="1.1" id="Warstwa_1" xmlns="http://www.w3.org/2000/svg" xmlns:xlink="http://www.w3.org/1999/xlink" x="0px" y="0px"
	 viewBox="0 0 512 512" style="enable-background:new 0 0 512 512;" xml:space="preserve">
<style type="text/css">
	.st0{fill:#333333;}
</style>
<title>ionicons-v5-l</title>
<path class="st0" d="M84,480H28c-6.6,0-12-5.4-12-12V92c0-6.6,5.4-12,12-12h56c6.6,0,12,5.4,12,12v376C96,474.6,90.6,480,84,480z"/>
<path class="st0" d="M240,208v-52c0-6.6-5.4-12-12-12H124c-6.6,0-12,5.4-12,12v52H240z"/>
<path class="st0" d="M112,416v52c0,6.6,5.4,12,12,12h104c6.6,0,12-5.4,12-12v-52H112z"/>
<rect x="112" y="240" class="st0" width="128" height="144"/>
<path class="st0" d="M340,480h-72c-6.6,0-12-5.4-12-12V44c0-6.6,5.4-12,12-12h72c6.6,0,12,5.4,12,12v424
	C352,474.6,346.6,480,340,480z"/>
<path class="st0" d="M369,100.7l30,367.8c0.5,6.6,6.3,11.5,12.9,11c0.2,0,0.3,0,0.5-0.1l72.2-9c6.4-0.8,11-6.5,10.5-12.9L465,91.2
	c-0.5-6.6-6.3-11.5-13-11c-0.1,0-0.2,0-0.2,0l-72.1,7.5C373.2,88.5,368.5,94.2,369,100.7z"/>
</svg>
