<?xml version="1.0" encoding="utf-8"?>
<!-- Generator: Adobe Illustrator 21.0.0, SVG Export Plug-In . SVG Version: 6.00 Build 0)  -->
<svg version="1.1" id="Capa_1" xmlns="http://www.w3.org/2000/svg" xmlns:xlink="http://www.w3.org/1999/xlink" x="0px" y="0px"
	 viewBox="0 0 512 512" style="enable-background:new 0 0 512 512;" xml:space="preserve">
<style type="text/css">
	.st0{fill:#333333;}
</style>
<g>
	<path class="st0" d="M283,127.6l81.8-98.1H0v98.1H283z M191.3,62.9h30v30.2h-30V62.9z M126.8,62.9h30v30.2h-30V62.9z M62.3,62.9h30
		v30.2h-30V62.9z"/>
	<path class="st0" d="M403.9,29.4L297,157.6H0v325h512V29.4L403.9,29.4z M234.6,340.5c0,30.6-24.9,55.5-55.5,55.5
		s-55.5-24.9-55.5-55.5V247h30v93.5c0,14.1,11.4,25.5,25.5,25.5s25.5-11.4,25.5-25.5V247h30V340.5z M382.2,396.5h-34.3l-24.5-44.1
		l-24.5,44.1h-34.3l41.6-75l-41.6-75h34.3l24.5,44.1l24.5-44.1h34.3l-41.6,75L382.2,396.5z"/>
</g>
</svg>
