<?xml version="1.0" encoding="utf-8"?>
<!-- Generator: Adobe Illustrator 21.0.0, SVG Export Plug-In . SVG Version: 6.00 Build 0)  -->
<svg version="1.1" id="Layer_1" xmlns="http://www.w3.org/2000/svg" xmlns:xlink="http://www.w3.org/1999/xlink" x="0px" y="0px"
	 viewBox="0 0 243.9 243.9" style="enable-background:new 0 0 243.9 243.9;" xml:space="preserve">
<style type="text/css">
	.st0{fill:#333333;}
</style>
<g id="XMLID_309_">
	<path id="XMLID_311_" class="st0" d="M45.2,211v-61.4c3.3,0.3,7.1,0.5,11.3,0.5c25.7,0,46.4-6.8,60-19.6
		c11.1-10.6,17.3-26.4,17.3-44.4c0-17.5-7.3-33.4-20.1-43.5c-12.6-10-31-14.9-56.4-14.9c-22,0-40.6,1.3-55.3,3.8
		C0.9,31.7,0,32.7,0,33.9V211c0,1.4,1.1,2.5,2.5,2.5h40.2C44.1,213.5,45.2,212.4,45.2,211z M45.2,113.3V64.4
		c2.5-0.5,7.1-1.1,14.3-1.1c18.6,0,29.2,8.7,29.2,23.9c0,16.8-12.1,26.8-32.4,26.8C51.4,114,48,113.8,45.2,113.3z"/>
	<path id="XMLID_334_" class="st0" d="M206.8,129c-16.6-5.8-19.4-8.6-19.4-12.6c0-7.1,8.1-8.2,12.9-8.2c10.3,0,21,3.9,27,7.2
		c0.7,0.4,1.5,0.4,2.2,0.1c0.7-0.3,1.2-0.9,1.4-1.7l7.2-28c0.3-1.1-0.3-2.3-1.3-2.9c-7.5-3.7-21.3-7.7-37.9-7.7
		c-32.7,0-55.5,18.5-55.5,45.1c-0.2,12.9,6.3,30.6,38.7,41.6c15.7,5.2,17.5,8,17.5,12.5c0,2.1,0,8.4-14.8,8.4
		c-11.1,0-26.1-4.9-33.6-9.5c-0.7-0.4-1.5-0.5-2.3-0.2c-0.7,0.3-1.3,0.9-1.5,1.7l-7.2,29c-0.3,1.1,0.2,2.3,1.2,2.8
		c11,5.9,26.8,9.4,43.3,9.4c36.4,0,59-17.1,59-44.6C243.6,150.9,232.1,137.7,206.8,129z"/>
</g>
</svg>
