<?xml version="1.0" encoding="utf-8"?>
<!-- Generator: Adobe Illustrator 21.0.0, SVG Export Plug-In . SVG Version: 6.00 Build 0)  -->
<svg version="1.1" id="Warstwa_1" xmlns="http://www.w3.org/2000/svg" xmlns:xlink="http://www.w3.org/1999/xlink" x="0px" y="0px"
	 viewBox="0 0 368 368" style="enable-background:new 0 0 368 368;" xml:space="preserve">
<style type="text/css">
	.st0{fill:#333333;}
</style>
<path class="st0" d="M344,0H24C10.8,0,0,10.8,0,24v320c0,13.2,10.8,24,24,24h320c13.2,0,24-10.8,24-24V24C368,10.8,357.2,0,344,0z
	 M352,344c0,4.4-3.6,8-8,8H24c-4.4,0-8-3.6-8-8V24c0-4.4,3.6-8,8-8h320c4.4,0,8,3.6,8,8V344z"/>
<path class="st0" d="M216,64H104c-4.4,0-8,3.6-8,8v224c0,4.4,3.6,8,8,8h112c30.9,0,56-25.1,56-56v-16c0-20.3-10.9-38.2-27.2-48
	c16.3-9.8,27.2-27.7,27.2-48v-16C272,89.1,246.9,64,216,64z M256,232v16c0,22.1-17.9,40-40,40H112v-96h104
	C238.1,192,256,209.9,256,232z M256,136c0,22.1-17.9,40-40,40H112V80h104c22.1,0,40,17.9,40,40V136z"/>
</svg>
