<?xml version="1.0" encoding="utf-8"?>
<!-- Generator: Adobe Illustrator 21.0.0, SVG Export Plug-In . SVG Version: 6.00 Build 0)  -->
<svg version="1.1" id="Warstwa_1" xmlns="http://www.w3.org/2000/svg" xmlns:xlink="http://www.w3.org/1999/xlink" x="0px" y="0px"
	 viewBox="0 0 512 512" style="enable-background:new 0 0 512 512;" xml:space="preserve">
<style type="text/css">
	.st0{fill:#333333;}
</style>
<title>ionicons-v5_logos</title>
<path class="st0" d="M32,32v448h448V32H32z M272,380c0,43.6-25.8,64.9-63.1,64.9c-33.7,0-53.2-17.4-63.2-38.5l0,0l34.3-20.8
	c6.6,11.7,11.6,21.6,26.1,21.6c12,0,21.9-5.4,21.9-26.5V240h44V380z M371.4,443.9c-39.1,0-64.4-17.6-76.7-42l0,0L329,382
	c9,14.7,20.8,24.6,41.5,24.6c17.4,0,27.6-7.7,27.6-19.8c0-14.4-10.4-19.5-29.7-28l-10.5-4.5c-30.4-12.9-50.5-29.2-50.5-63.5
	c0-31.6,24-54.6,61.6-54.6c26.8,0,46,8.3,59.9,32.7L396,290c-7.2-12.9-15-18-27.1-18c-12.3,0-20.1,7.8-20.1,18
	c0,12.6,7.8,17.7,25.9,25.6l10.5,4.5c35.8,15.3,55.9,31,55.9,66.2C441.1,424.1,411.4,443.9,371.4,443.9z"/>
</svg>
