<?xml version="1.0" encoding="utf-8"?>
<!-- Generator: Adobe Illustrator 21.0.0, SVG Export Plug-In . SVG Version: 6.00 Build 0)  -->
<svg version="1.1" id="Layer_1" xmlns="http://www.w3.org/2000/svg" xmlns:xlink="http://www.w3.org/1999/xlink" x="0px" y="0px"
	 viewBox="0 0 231.6 231.6" style="enable-background:new 0 0 231.6 231.6;" xml:space="preserve">
<style type="text/css">
	.st0{fill:#333333;}
</style>
<g id="XMLID_449_">
	<path id="XMLID_450_" class="st0" d="M2.5,211.8h42.1c1.1,0,2.1-0.7,2.4-1.8l12.3-44.2h47.6l13.3,44.3c0.3,1.1,1.3,1.8,2.4,1.8
		h43.7c0,0,0,0,0,0c1.4,0,2.5-1.1,2.5-2.5c0-0.4-0.1-0.7-0.2-1L113,29c-0.3-1-1.3-1.8-2.4-1.8H57.4c-1.1,0-2.1,0.7-2.4,1.8
		L0.1,208.5c-0.2,0.8-0.1,1.6,0.4,2.2C1,211.4,1.7,211.8,2.5,211.8z M99.6,130.3h-33l9.8-34.9c1.8-6.3,3.4-13.7,5.1-20.9
		c0.4-1.7,0.7-3.3,1.1-4.9c2.1,8.6,4.5,17.9,6.9,25.8L99.6,130.3z"/>
	<path id="XMLID_453_" class="st0" d="M187.3,76.6c-1.4,0-2.5,1.1-2.5,2.5v130.2c0,1.4,1.1,2.5,2.5,2.5h40.5c1.4,0,2.5-1.1,2.5-2.5
		V79.1c0-1.4-1.1-2.5-2.5-2.5H187.3z"/>
	<path id="XMLID_454_" class="st0" d="M207.3,65.6c14.1,0,24.3-9.6,24.3-22.8c-0.3-13.5-10.2-22.9-24.1-22.9
		c-7.1,0-13.4,2.4-17.7,6.9c-4.1,4.2-6.2,9.9-6.1,16.1c-0.1,6,2,11.7,6.1,15.8C194.2,63.1,200.4,65.6,207.3,65.6z"/>
</g>
</svg>
